<svg xmlns="http://www.w3.org/2000/svg" width="456.663" height="465.962" viewBox="0 0 456.663 465.962">
  <g id="Layer_2" data-name="Layer 2" transform="translate(0.5 0.006)">
    <g id="vector" transform="translate(0 -0.006)">
      <path id="Path_12" data-name="Path 12" d="M439.579,161.875l3.129-8.1-4.776-.458-1.39-12.184-2.711-12.047-1.567-11.549-2.683-11.6-.343-1.71.12-15.587-1.516-4.753-2.814-3.306-2.837,1.2,2.574,6.447L425.7,97.6l-1.373,7.15-.074,1.024,1.642,12.007,2.517,12.962,2.305,12.235,3.032,12.785,1.316,10.3,4.845-1.882Z" transform="translate(-180.691 -34.483)" fill="#4ecca3"/>
      <path id="Path_13" data-name="Path 13" d="M436.56,183.827h0l-6.195-32.3-5.274-28.441v-.04c-.046.109-.086.223-.132.326.646,3.341,11.143,57.774,11.372,60.536Z" transform="translate(-181.876 -52.66)" fill="#f8f8f8"/>
      <path id="Path_14" data-name="Path 14" d="M428,111.31v-.04a.569.569,0,0,1,0,.1Z" transform="translate(-183.177 -47.618)" fill="#f8f8f8"/>
      <path id="Path_15" data-name="Path 15" d="M414.266,155.923c-11.257-19.3-20.741-36.151-29.842-50.909-36.1-4.09-56.938-20.421-75.026-20.421-2.105,0-5.377.858-6.618.858h0L300.035,90.6l.08,7.087,4.25.8,5.72,3.049,4.056,3.781,4.965,7.39-.337.223a9.749,9.749,0,0,1,5.446,4.507c1.413,2.746,1.293,5.972.166,9.318h0c8.746,32.742,3.072,81.438-.194,84.143-4.942,4.1-57.631-9.724-62.006-15.822-1.819-2.517-1.447-19.74,1.819-39.051l.418-.2c-7.179.858-13.625,0-17.67-4.033-9.221-9.221-4.7-73.853-4.2-80.654a26.8,26.8,0,0,1-2.116-10.9c.034-8.935,3.655-16.194,8.14-16.194,2,0,3.827,1.447,5.24,3.838l-.572-1.373h2.105l2.214,1.476,2.86,5.188.709,3.964-.217,14.112,8.363,48.107,5.08-.5,2.58-5.72,5.589-7.848,4.376-4.765V97.5h0c-8.489-1.453-15.1-13.065-15.1-27.171,0-1.064.034-2.116.109-3.146l.48-6.052.892-2c.04-.154.08-.309.126-.458-.658-.36-2.86-2.385-2.86-9.364,0-13.728,15.193-21.107,27.932-23.967-16.943-7.322-35.905-13-56.79-17.618C199.1-1.5,148.8-6.335,118.357,16.014S77.338,87.6,59.96,142.206c-17.5,54.6-41.8,114.569-29.259,169.317,12.407,54.61,61.778,103.992,115.879,110.914s112.876-28.6,175.323-52.254S450.452,334.9,464.7,298.847,441.437,202.3,414.266,155.923ZM177.715,347.485H144.79l22.343-7.9V334.97h10.582Z" transform="translate(-11.659 0.006)" fill="#c0ecde"/>
      <path id="Path_16" data-name="Path 16" d="M426.49,91.3Z" transform="translate(-182.531 -39.071)" fill="#f8f8f8"/>
      <path id="Path_17" data-name="Path 17" d="M460.146,92.238a6.512,6.512,0,0,1,.046-.858,42.088,42.088,0,0,0-2.631,6.452l.04.086Z" transform="translate(-195.829 -39.106)" fill="#f8f8f8"/>
      <path id="Path_18" data-name="Path 18" d="M503.78,246.578c3.043,1.31,29,16.869,28.749,33.6.475-14.4.475-26.45.475-26.45l-1.642-12.676-2.694-17.492-5.508,8.466-7.185,7.659-8.454,6.092Z" transform="translate(-215.61 -95.677)" fill="#4ecca3"/>
      <path id="Path_19" data-name="Path 19" d="M97.86,705.335h-17.9v21.2H53.707v-21.2H0v-8.008L62.052,612.52h17.9v70.221h17.9ZM53.707,682.741V656.319L34.939,682.741Z" transform="translate(0 -262.145)" fill="#a6e5d1" stroke="rgba(255,255,255,0)" stroke-width="1"/>
      <path id="Path_20" data-name="Path 20" d="M197.21,668.532c0-32.851,9.558-58.752,42.9-58.752,33.177,0,42.409,25.9,42.409,58.752,0,32.679-9.209,58.4-42.409,58.4C206.768,726.935,197.21,701.211,197.21,668.532Zm59.095,0c0-19.815-3.827-35.11-16.165-35.11-12.516,0-16.857,15.3-16.857,35.11,0,19.637,4.342,34.59,16.857,34.59C252.478,703.144,256.3,688.169,256.3,668.532Z" transform="translate(-84.403 -260.973)" fill="#a6e5d1"/>
      <path id="Path_21" data-name="Path 21" d="M461.872,705.335h-17.9v21.2H417.724v-21.2H364v-8.008l62.064-84.807h17.9v70.221h17.9Zm-44.148-22.595V656.319L398.95,682.741Z" transform="translate(-155.786 -262.145)" fill="#a6e5d1"/>
      <path id="Path_22" data-name="Path 22" d="M496.754,404.21c.492,4.679,10.828,206.435,10.828,206.435H496.754L444.1,420.678Z" transform="translate(-190.068 -172.992)" fill="#4ecca3"/>
      <path id="Path_23" data-name="Path 23" d="M426.967,353.634c1.367,27.565-10.376,50.143-30.769,50.143-27.994,0-65.055-17.847-75.254-27.92C318.4,383.385,282.292,478.2,282.292,478.2H267.34s9.581-110.4,27.543-138.714c5.909-7.871,45.715-7.579,70.078-1.676C384.3,350.048,420.291,355.511,426.967,353.634Z" transform="translate(-114.417 -142.717)" fill="#4ecca3"/>
      <path id="Path_24" data-name="Path 24" d="M422.33,81.823a3.5,3.5,0,0,1,2.105-.492c2.191.154,5.772,5.943,5.772,10.628s-1.321,6.447-.921,9.85,9.066,49.554,9.066,52.368a38.623,38.623,0,0,0,5.079-.326" transform="translate(-180.751 -34.799)" fill="none" stroke="#4ecca3" stroke-linecap="round" stroke-linejoin="round" stroke-width="2.5"/>
      <path id="Path_25" data-name="Path 25" d="M503.78,170.42c8.763.984,15.073,6.956,19.534,15.7" transform="translate(-215.61 -72.933)" fill="none" stroke="#4ecca3" stroke-linecap="round" stroke-miterlimit="10" stroke-width="2.5"/>
      <path id="Path_26" data-name="Path 26" d="M452.23,205.245c4-12.356,9.461-23.1,16.543-28.515" transform="translate(-193.547 -75.634)" fill="none" stroke="#4ecca3" stroke-linecap="round" stroke-miterlimit="10" stroke-width="2.5"/>
      <path id="Path_27" data-name="Path 27" d="M499.388,221.62c8.746,32.742,3.072,81.438-.195,84.143-4.942,4.1-57.631-9.724-62.007-15.822-1.819-2.517-1.447-19.74,1.819-39.051" transform="translate(-186.644 -94.846)" fill="none" stroke="#4ecca3" stroke-linecap="round" stroke-miterlimit="10" stroke-width="2.5"/>
      <path id="Path_28" data-name="Path 28" d="M441.64,158.089c-2.328.789-15.982,6.115-15.982,6.115-.229-2.746-10.725-57.2-11.372-60.536A27.239,27.239,0,0,0,416.214,93.2c0-8.941-3.632-16.2-8.111-16.2S400,84.259,400,93.2a26.8,26.8,0,0,0,2.116,10.9c-.5,6.807-5.022,71.439,4.2,80.654,9.4,9.4,31.764,1.533,46.225-4.9" transform="translate(-171.191 -32.951)" fill="none" stroke="#4ecca3" stroke-linecap="round" stroke-linejoin="round" stroke-width="2.5"/>
      <rect id="Rectangle_2" data-name="Rectangle 2" width="8.866" height="6.195" transform="matrix(0.967, 0.257, -0.257, 0.967, 251.74, 60.535)" fill="#4ecca3"/>
      <path id="Path_29" data-name="Path 29" d="M503.736,195.32c4.891.572,8.906,2.288,10.685,5.72,6.458,12.539-19.117,35.127-26.193,33.446s-18.488-26.93-16.354-31.461c.606-1.3,3.85-3.02,8.306-4.525" transform="translate(-201.843 -83.59)" fill="none" stroke="#4ecca3" stroke-linecap="round" stroke-miterlimit="10" stroke-width="2.5"/>
      <path id="Path_30" data-name="Path 30" d="M481.15,174.076V170.53" transform="translate(-205.925 -72.981)" fill="none" stroke="#4ecca3" stroke-linecap="round" stroke-linejoin="round" stroke-width="2.5"/>
      <path id="Path_31" data-name="Path 31" d="M499.154,158.94v17.035c0,1.03-3.049,1.687-6.184,1.785" transform="translate(-210.983 -68.02)" fill="none" stroke="#4ecca3" stroke-linecap="round" stroke-linejoin="round" stroke-width="2.5"/>
      <path id="Path_32" data-name="Path 32" d="M506.732,149.37a27.766,27.766,0,0,1-2.952,5.474" transform="translate(-215.61 -63.924)" fill="none" stroke="#4ecca3" stroke-linecap="round" stroke-linejoin="round" stroke-width="2.5"/>
      <path id="Path_33" data-name="Path 33" d="M475.039,141.1a10.777,10.777,0,0,1-3.432.572c-9.335,0-16.9-12.235-16.9-27.325a41.624,41.624,0,0,1,1.607-11.652" transform="translate(-194.608 -43.946)" fill="none" stroke="#4ecca3" stroke-linecap="round" stroke-linejoin="round" stroke-width="2.5"/>
      <path id="Path_34" data-name="Path 34" d="M482.273,96.8c.332,3.117,1.51,4.691,2.563,4.691,1.241,0,4.513-.858,6.618-.858,20.673,0,44.949,21.342,91.523,21.342,24.328,0,62.5-6.138,62.5-41.866,0-19.294-6.944-42.609-43.651-42.609-23.31,0-39.641,11.44-58.792,11.44-24.6,0-34.081-8.906-51.075-8.906-12.1,0-39.343,7.013-39.343,25.386,0,6.979,2.185,9,2.86,9.364a41.622,41.622,0,0,1,2.631-6.452,10.834,10.834,0,0,0,2.071,7.185" transform="translate(-193.714 -16.046)" fill="none" stroke="#4ecca3" stroke-linecap="round" stroke-linejoin="round" stroke-width="2.5"/>
      <path id="Path_35" data-name="Path 35" d="M498.24,123.68a18.433,18.433,0,0,1,1.339,1.716" transform="translate(-213.239 -52.929)" fill="none" stroke="#4ecca3" stroke-linecap="round" stroke-linejoin="round" stroke-width="2.5"/>
      <path id="Path_36" data-name="Path 36" d="M497.05,127.538a4.25,4.25,0,0,1,2.408-.738,4.313,4.313,0,0,1,1.83,8.22" transform="translate(-212.73 -54.265)" fill="none" stroke="#4ecca3" stroke-linecap="round" stroke-linejoin="round" stroke-width="2.5"/>
      <path id="Path_37" data-name="Path 37" d="M427.19,99.619a28.212,28.212,0,0,1-1.55,9.541c4.868.572,8.391.99,8.391.99l3.358-13.574S432.424,94.511,426.241,92a29.712,29.712,0,0,1,.95,7.619Z" transform="translate(-182.167 -39.371)" fill="#4ecca3"/>
      <path id="Path_38" data-name="Path 38" d="M388.884,92.841c0-5.051,1.144-9.558,2.974-12.527-5.337-2.1-9.827-3.8-11.1-4.124-3.712-.915-9.152,21.514-5.543,22.412,1.459.36,7.734,1.2,14.7,2.082a29.521,29.521,0,0,1-1.024-7.842Z" transform="translate(-160.078 -32.593)" fill="#4ecca3"/>
      <path id="Path_39" data-name="Path 39" d="M265.665,585.6v12.516H232.74l22.349-7.9V585.6" transform="translate(-99.609 -250.624)" fill="none" stroke="#4ecca3" stroke-linecap="round" stroke-linejoin="round" stroke-width="2.5"/>
      <path id="Path_40" data-name="Path 40" d="M532.013,764.27v12.516H502.52l20.015-7.9V764.27" transform="translate(-215.071 -327.092)" fill="none" stroke="#4ecca3" stroke-linecap="round" stroke-linejoin="round" stroke-width="2.5"/>
    </g>
  </g>
</svg>
