<svg xmlns="http://www.w3.org/2000/svg" width="407.431" height="416.176" viewBox="0 0 407.431 416.176">
  <g id="Layer_2" data-name="Layer 2" transform="translate(0 -0.029)">
    <g id="vector" transform="translate(0 0.029)">
      <path id="Path_41" data-name="Path 41" d="M310.735,48.383c22.991,20.656,38.038,49.477,62.194,90.9,24.269,41.425,57.734,95.45,45.043,127.658s-71.764,42.59-127.541,63.712-108.289,52.86-156.6,46.673-92.41-50.29-103.5-99.067c-11.2-48.9,10.5-102.455,26.134-151.232C71.987,78.256,81.439,34.246,108.625,14.32S180.742-1.325,218.785,6.957C256.823,15.342,287.743,27.731,310.735,48.383Z" transform="translate(-13.323 -0.029)" fill="#c0ecde"/>
      <path id="Path_42" data-name="Path 42" d="M87.408,695.422H71.416v18.94H47.97v-18.94H0v-7.153L55.425,612.52H71.416v62.721H87.408ZM47.97,675.241v-23.6l-16.763,23.6Z" transform="translate(0 -299.586)" fill="#d3d3d3"/>
      <path id="Path_43" data-name="Path 43" d="M197.21,662.257c0-29.342,8.537-52.477,38.319-52.477,29.633,0,37.88,23.134,37.88,52.477,0,29.189-8.226,52.165-37.88,52.165C205.747,714.422,197.21,691.445,197.21,662.257Zm52.783,0c0-17.7-3.418-31.36-14.439-31.36-11.179,0-15.057,13.662-15.057,31.36,0,17.54,3.878,30.9,15.057,30.9,11.021.021,14.439-13.355,14.439-30.9Z" transform="translate(-96.451 -298.246)" fill="#d3d3d3"/>
      <path id="Path_44" data-name="Path 44" d="M451.418,695.422H435.427v18.94H411.986v-18.94H364v-7.153l55.435-75.749h15.992v62.721h15.992Zm-39.433-20.181v-23.6l-16.768,23.6Z" transform="translate(-178.025 -299.586)" fill="#d3d3d3"/>
      <rect id="Rectangle_3" data-name="Rectangle 3" width="8.691" height="7.357" transform="translate(282.922 396.306) rotate(180)" fill="#de8e68"/>
      <path id="Path_45" data-name="Path 45" d="M535.557,773.45v7.357H514.88V778.13l10.755-4.68Z" transform="translate(-251.818 -378.294)"/>
      <rect id="Rectangle_4" data-name="Rectangle 4" width="8.691" height="7.357" transform="translate(147.835 306.052) rotate(180)" fill="#de8e68"/>
      <path id="Path_46" data-name="Path 46" d="M271.162,596.8v7.357H250.49v-2.672l10.755-4.685Z" transform="translate(-122.51 -291.898)"/>
      <path id="Path_47" data-name="Path 47" d="M491.13,404.21C491.57,408.389,500.8,588.6,500.8,588.6H491.13L444.1,418.919Z" transform="translate(-217.2 -197.706)" fill="#56cad8"/>
      <path id="Path_48" data-name="Path 48" d="M409.647,350.45c0,24.473-9,46.494-27.212,46.494-25,0-58.107-15.941-67.217-24.938-2.274,6.724-34.523,91.414-34.523,91.414H267.34s8.558-98.608,24.6-123.9c5.278-7.03,48.348-5.273,70.108,0S409.647,350.45,409.647,350.45Z" transform="translate(-130.751 -163.8)" fill="#74d5de"/>
      <path id="Path_49" data-name="Path 49" d="M416,83.843a3.142,3.142,0,0,1,3.341-2.514c1.957.138,5.155,5.308,5.155,9.493s-1.18,5.758-.823,8.8,8.1,44.261,8.1,46.775a81.9,81.9,0,0,0,8.936-.838l-4.89,19.691H421.587l-9.2-79.31Z" transform="translate(-201.692 -39.786)" fill="#d37c59"/>
      <path id="Path_50" data-name="Path 50" d="M410.88,88.361l-3,12.119s-29.587-3.438-32.816-4.236,1.635-20.835,4.951-20.018S410.88,88.361,410.88,88.361Z" transform="translate(-182.918 -37.284)"/>
      <path id="Path_51" data-name="Path 51" d="M468.362,170.17c37.849,0,28.514,97.785,24.095,101.443s-51.475-8.686-55.384-14.132S440.6,170.17,468.362,170.17Z" transform="translate(-213.29 -83.241)" fill="#fed385"/>
      <path id="Path_52" data-name="Path 52" d="M437.192,149.428c-2.079.705-14.275,5.462-14.275,5.462-.2-2.452-9.58-51.092-10.157-54.071a24.33,24.33,0,0,0,1.722-9.35c0-7.986-3.244-14.469-7.245-14.469S400,83.484,400,91.469a23.936,23.936,0,0,0,1.89,9.738c-.45,6.08-4.486,63.809,3.75,72.04,8.686,8.686,29.8.853,42.636-4.981C451.022,167.315,447.277,146.7,437.192,149.428Z" transform="translate(-195.629 -37.674)" fill="#de8e68"/>
      <rect id="Rectangle_5" data-name="Rectangle 5" width="7.919" height="5.533" transform="matrix(0.967, 0.257, -0.257, 0.967, 224.852, 54.052)"/>
      <path id="Path_53" data-name="Path 53" d="M509.849,200.253c5.768,11.2-17.075,31.376-23.4,29.873s-16.513-24.054-14.607-28.1S504.239,189.355,509.849,200.253Z" transform="translate(-230.656 -95.36)" fill="#fed892"/>
      <path id="Path_54" data-name="Path 54" d="M492.712,167.827c0,1.9-11.562,2.376-11.562,0V146h11.562Z" transform="translate(-235.321 -71.42)" fill="#d37c59"/>
      <ellipse id="Ellipse_5" data-name="Ellipse 5" cx="15.093" cy="24.407" rx="15.093" ry="24.407" transform="translate(232.341 38.437)" fill="#dc8e6c"/>
      <path id="Path_55" data-name="Path 55" d="M457.494,65.038a9.9,9.9,0,0,0,4.471,8.941c4.5,3.066,7.71,1.712,11.01,4.6,1.742,1.742,6.008,5.109,6.049,10.31,0,3.847,1.262,5.789,2.371,5.789s4.031-.766,5.911-.766c18.465,0,40.148,19.062,81.747,19.062,21.729,0,55.828-5.482,55.828-37.394,0-17.233-6.2-38.058-38.988-38.058-20.82,0-35.407,10.218-52.512,10.218-21.97,0-30.441-7.955-45.62-7.955-10.811,0-35.141,6.264-35.141,22.675,0,6.233,1.952,8.042,2.555,8.364A35.353,35.353,0,0,1,457.494,65.038Z" transform="translate(-221.368 -18.365)"/>
      <circle id="Ellipse_6" data-name="Ellipse 6" cx="3.852" cy="3.852" r="3.852" transform="translate(252.251 64.77)" fill="#dc8e6c"/>
    </g>
  </g>
</svg>
