<svg xmlns="http://www.w3.org/2000/svg" width="706.626" height="502.22" viewBox="0 0 706.626 502.22">
  <g id="Layer_2" data-name="Layer 2" transform="translate(-275.996 -88.181)">
    <g id="Vector" transform="translate(276 88.178)">
      <path id="Path_1" data-name="Path 1" d="M649.651,289.224,580.182,326.07,506.143,197.8c11.21-6.5,28.6-16.809,48.356-28.6C528.3,140.342,502.274,114.6,474.221,88.07,425.375,41.676,370.5-7.368,321.464.927c-32.882,5.578-63.04,37.214-95.758,70.872H391.648v67.9H361.722l-11.769,24.736L338.184,139.7h-117.6V77.044c-14.3,14.691-29.191,29.538-45.019,42.581-15.317,12.586-31.54,23.517-47.675,33.774l111.164,94.042s82.362-25.315,89.418-24.519c7.791.885,17.578,6.232,28.278,14.384h0c6.7-2.833,12.259-5.1,15.14-6.164,12.123-4.407,51.809,9.923,60.615,11.027s35.273-12.13,39.809-14.813L535.6,337.008s-61.977,37.316-86.789,51.325h0c-16.387,25.513-53.123,59.253-113.33,61.909-3.405-1.362-15.44-8.725-32.16-19.424l1.171-.341-.838-.089c-5.06,6.64-16.761,14.507-23.769,13.478-8.609-1.267-69.6-41.5-77.444-52.892-6.429-9.337-5.21-24.444-4.556-29.592h0c-36.1-24.144-66.282-44.549-70.627-47.627-9.433-6.7-73.392-46.429-106.962-74.1-29.15,46.817-26.9,113.943,6.729,156.8,34.932,44.27,103.523,62.624,157.361,74.237,53.634,11.64,92.442,16.584,135.315,22.23,42.689,5.816,89.792,12.348,165.5,7.757,75.858-4.406,180.484-19.935,205.874-68.107C710.246,396.091,684.325,340.938,649.651,289.224Z" transform="translate(0 0)" fill="#a6e5d1"/>
      <path id="Path_2" data-name="Path 2" d="M445.33,612.615c16.72,10.7,28.768,18.089,32.16,19.424,60.207-2.629,96.944-36.4,113.33-61.909" transform="translate(-142.03 -181.83)" fill="none" stroke="#4ecca3" stroke-linecap="round" stroke-linejoin="round" stroke-width="2.5"/>
      <path id="Path_3" data-name="Path 3" d="M7.63,76.42S37.74,100.067,59.7,118.027L241.489,271.812s82.362-25.315,89.418-24.519c7.791.885,17.578,6.232,28.278,14.384" transform="translate(-2.435 -24.372)" fill="none" stroke="#4ecca3" stroke-linecap="round" stroke-linejoin="round" stroke-width="2.5"/>
      <path id="Path_4" data-name="Path 4" d="M200.3,467.032c-36.1-24.144-66.282-44.549-70.627-47.627C118.495,411.484,30.453,357,7.63,331.37" transform="translate(-2.435 -105.683)" fill="none" stroke="#4ecca3" stroke-linecap="round" stroke-linejoin="round" stroke-width="2.5"/>
      <path id="Path_5" data-name="Path 5" d="M817.876,450.815l-38.188,22.046-92.6-160.385,38.188-22.046Z" transform="translate(-219.135 -92.626)" fill="#4ecca3"/>
      <circle id="Ellipse_1" data-name="Ellipse 1" cx="12.123" cy="12.123" r="12.123" transform="translate(555.95 336.974)" fill="#a6e5d1"/>
      <path id="Path_6" data-name="Path 6" d="M588.908,333.82c-4.536,2.683-30.989,15.917-39.809,14.813s-48.506-15.433-60.615-11.027-69.469,29.763-69.469,29.763S367.2,422.489,366.1,423.592s-.061,9.678,1.519,11.047,19.383,6.743,22.332,4.951,42.771-32.344,49.936-32.344,75.517,49.126,116.231,92.489c9.392-4.086,96.072-56.3,96.072-56.3Z" transform="translate(-116.614 -106.464)" fill="none" stroke="#4ecca3" stroke-linecap="round" stroke-linejoin="round" stroke-width="2.5"/>
      <path id="Path_7" data-name="Path 7" d="M290.525,525.008s-3.548,20,4.3,31.384,68.836,51.625,77.444,52.892,24.294-10.9,26.065-17.708-9.617-31.888-12.906-35.416S335.06,519.7,330,518.926,298.371,520.2,290.525,525.008Z" transform="translate(-92.403 -165.449)" fill="none" stroke="#4ecca3" stroke-linecap="round" stroke-linejoin="round" stroke-width="2.5"/>
      <line id="Line_1" data-name="Line 1" y1="25.547" x2="33.706" transform="translate(204.075 367.724)" fill="none" stroke="#4ecca3" stroke-linecap="round" stroke-linejoin="round" stroke-width="2.5"/>
      <line id="Line_2" data-name="Line 2" y1="25.547" x2="33.713" transform="translate(230.527 389.137)" fill="none" stroke="#4ecca3" stroke-linecap="round" stroke-linejoin="round" stroke-width="2.5"/>
      <line id="Line_3" data-name="Line 3" y1="19.411" x2="25.615" transform="translate(256.333 411.919)" fill="none" stroke="#4ecca3" stroke-linecap="round" stroke-linejoin="round" stroke-width="2.5"/>
      <line id="Line_4" data-name="Line 4" x1="95.902" y1="77.942" transform="translate(324.42 341.333)" fill="none" stroke="#4ecca3" stroke-linecap="round" stroke-linejoin="round" stroke-width="2.5"/>
      <line id="Line_5" data-name="Line 5" x1="60.826" y1="49.432" transform="translate(323.827 389.689)" fill="none" stroke="#4ecca3" stroke-linecap="round" stroke-linejoin="round" stroke-width="2.5"/>
      <line id="Line_6" data-name="Line 6" x1="50.052" y1="40.674" transform="translate(304.192 408.977)" fill="none" stroke="#4ecca3" stroke-linecap="round" stroke-linejoin="round" stroke-width="2.5"/>
      <rect id="Rectangle_1" data-name="Rectangle 1" width="79.719" height="87.088" rx="23.74" transform="matrix(0.76, 0.65, -0.65, 0.76, 109.849, 204.367)" fill="#4ecca3"/>
      <path id="Path_8" data-name="Path 8" d="M215.765,327.945,182.29,299.32,216.1,259.77,249.58,288.4Z" transform="translate(-58.139 -82.847)" fill="#4ecca3"/>
      <circle id="Ellipse_2" data-name="Ellipse 2" cx="13.649" cy="13.649" r="13.649" transform="translate(140.606 432.242)" fill="none" stroke="#4ecca3" stroke-miterlimit="10" stroke-width="8.09"/>
      <circle id="Ellipse_3" data-name="Ellipse 3" cx="9.916" cy="9.916" r="9.916" transform="translate(492.494 415.665)" fill="none" stroke="#4ecca3" stroke-miterlimit="10" stroke-width="8.09"/>
      <circle id="Ellipse_4" data-name="Ellipse 4" cx="9.916" cy="9.916" r="9.916" transform="translate(424.953 185.13)" fill="none" stroke="#4ecca3" stroke-miterlimit="10" stroke-width="8.09"/>
      <path id="Path_9" data-name="Path 9" d="M494.944,105.42H323.88v67.9h117.6l11.769,24.736,11.769-24.736h29.926Z" transform="translate(-103.296 -33.621)" fill="rgba(255,255,255,0)" stroke="#4ecca3" stroke-linecap="round" stroke-linejoin="round" stroke-width="2.5"/>
      <path id="Path_11" data-name="Path 11" d="M0,0H124.609" transform="translate(243.808 89.085)" fill="none" stroke="#4ecca3" stroke-linecap="round" stroke-width="2.5"/>
      <line id="Line_8" data-name="Line 8" x2="124.609" transform="translate(243.808 105.751)" fill="none" stroke="#4ecca3" stroke-linecap="round" stroke-linejoin="round" stroke-width="2.5"/>
      <line id="Line_9" data-name="Line 9" x2="124.609" transform="translate(243.808 122.41)" fill="none" stroke="#4ecca3" stroke-linecap="round" stroke-linejoin="round" stroke-width="2.5"/>
      <path id="Path_10" data-name="Path 10" d="M941.924,115.61l-12.355,7.444S787.648,208.9,743.16,234.675l74.06,128.266,124.7-66.173" transform="translate(-237.017 -36.87)" fill="none" stroke="#4ecca3" stroke-linecap="round" stroke-linejoin="round" stroke-width="2.5"/>
    </g>
  </g>
</svg>
