<svg xmlns="http://www.w3.org/2000/svg" xmlns:xlink="http://www.w3.org/1999/xlink" width="187.915" height="111.961" viewBox="0 0 187.915 111.961">
  <defs>
    <clipPath id="clip-path">
      <rect id="Rectangle_307" data-name="Rectangle 307" width="12.44" height="3.554" transform="translate(-1.091 -1.19)"/>
    </clipPath>
    <clipPath id="clip-path-2">
      <rect id="Rectangle_308" data-name="Rectangle 308" width="28.434" height="3.554" transform="translate(-0.619 -1.19)"/>
    </clipPath>
    <clipPath id="clip-path-3">
      <rect id="Rectangle_309" data-name="Rectangle 309" width="39.098" height="3.554" transform="translate(117.697 134.655)"/>
    </clipPath>
    <clipPath id="clip-path-4">
      <rect id="Rectangle_310" data-name="Rectangle 310" width="8.886" height="3.554" transform="translate(-0.308 -1.19)"/>
    </clipPath>
    <clipPath id="clip-path-5">
      <rect id="Rectangle_311" data-name="Rectangle 311" width="31.99" height="3.555" transform="translate(-0.805 -1.329)"/>
    </clipPath>
    <clipPath id="clip-path-6">
      <rect id="Rectangle_312" data-name="Rectangle 312" width="8.886" height="8.886" transform="translate(142.578 45.797)"/>
    </clipPath>
    <clipPath id="clip-path-7">
      <rect id="Rectangle_313" data-name="Rectangle 313" width="7.108" height="7.109" transform="translate(167.458 52.906)"/>
    </clipPath>
    <clipPath id="clip-path-8">
      <rect id="Rectangle_314" data-name="Rectangle 314" width="7.109" height="8.887" transform="translate(41.28 132.877)"/>
    </clipPath>
    <clipPath id="clip-path-9">
      <rect id="Rectangle_315" data-name="Rectangle 315" width="8.886" height="8.886" transform="translate(151.464 56.46)"/>
    </clipPath>
    <clipPath id="clip-path-10">
      <rect id="Rectangle_316" data-name="Rectangle 316" width="8.886" height="14.217" transform="translate(83.932 81.34)" fill="#c0ecde"/>
    </clipPath>
    <clipPath id="clip-path-11">
      <rect id="Rectangle_317" data-name="Rectangle 317" width="10.664" height="14.217" transform="translate(94.594 77.786)" fill="#c0ecde"/>
    </clipPath>
    <clipPath id="clip-path-12">
      <rect id="Rectangle_318" data-name="Rectangle 318" width="10.663" height="14.217" transform="translate(107.034 72.455)" fill="#c0ecde"/>
    </clipPath>
    <clipPath id="clip-path-13">
      <rect id="Rectangle_319" data-name="Rectangle 319" width="12.44" height="14.217" transform="translate(115.92 68.9)" fill="#c0ecde"/>
    </clipPath>
    <clipPath id="clip-path-14">
      <rect id="Rectangle_320" data-name="Rectangle 320" width="19.549" height="10.663" transform="translate(73.269 68.9)" fill="#c0ecde"/>
    </clipPath>
    <clipPath id="clip-path-15">
      <rect id="Rectangle_321" data-name="Rectangle 321" width="19.55" height="10.664" transform="translate(83.932 63.568)" fill="#c0ecde"/>
    </clipPath>
    <clipPath id="clip-path-16">
      <rect id="Rectangle_322" data-name="Rectangle 322" width="17.772" height="10.663" transform="translate(94.594 56.46)" fill="#c0ecde"/>
    </clipPath>
    <clipPath id="clip-path-17">
      <rect id="Rectangle_323" data-name="Rectangle 323" width="15.995" height="10.663" transform="translate(107.034 49.352)" fill="#c0ecde"/>
    </clipPath>
  </defs>
  <g id="no_video_found" data-name="no video found" transform="translate(9227.375 -17342)">
    <g id="no-videos" transform="translate(-9233.435 17297.98)">
      <path id="Path_3108" data-name="Path 3108" d="M57.182,84l4.374-2.834,58.95-34.989L125.78,54.4,72.188,89.667Z" fill="#a6e5d1"/>
      <path id="Path_3109" data-name="Path 3109" d="M57.182,84l4.374-2.834,58.95-34.989L125.78,54.4,72.188,89.667Z" fill="none" stroke="#4ecca3" stroke-width="1"/>
      <path id="Path_3110" data-name="Path 3110" d="M71.915,121.479,60.8,93.649l68.355-24.9,15.824,43.039-24.729,8.668-48.336,1.018" fill="#a6e5d1"/>
      <path id="Path_3111" data-name="Path 3111" d="M71.915,121.479,60.8,93.649l68.355-24.9,15.824,43.039-24.729,8.668-48.336,1.018" fill="none" stroke="#4ecca3" stroke-width="1"/>
      <line id="Line_1" data-name="Line 1" y1="25.106" x2="67.51" transform="translate(64.81 77.616)" fill="none" stroke="#4ecca3" stroke-width="1"/>
      <path id="Path_3112" data-name="Path 3112" d="M95.4,100.189l6.121,13.291,9.7-11.814Z" fill="#4ecca3"/>
      <path id="Path_3113" data-name="Path 3113" d="M6.435,118.5a8.976,8.976,0,0,0,5.868,3c3.776.344,9.238-1.623,9.238-1.623a20.861,20.861,0,0,0,7.24,1.623,18.736,18.736,0,0,0,6.991-1.623s3.589,2.37,6.74,2.37a10.233,10.233,0,0,0,5.868-2.37s2.529-1.778,4.869-1.372,4.494,3,4.494,3,3.4-3,6.866-3c2.355,0,5.367,1.866,6.991,3h0l48.436-.751a23.857,23.857,0,0,1,7.49-.747,12.777,12.777,0,0,1,4.744,1.373s3.185,2.06,5.867,1S139.7,118,142.382,118s2.652,4.027,6.49,4.367,5.056-2.744,8.864-2.994,3.216,2,6.366,2,2.871-2.249,6.241-2,3.621,2.994,7.241,2.994c2.827,0,7.089-2.874,7.089-2.874l.15-.12s2.312-1.873,4.5-1.373,4.245,3.371,4.245,3.371" fill="none" stroke="#a6e5d1" stroke-width="1"/>
      <g id="Group_688" data-name="Group 688" opacity="0.22">
        <g id="Group_687" data-name="Group 687">
          <g id="Group_686" data-name="Group 686" transform="translate(69.029 135.845)" clip-path="url(#clip-path)">
            <line id="Line_2" data-name="Line 2" x2="9.915" fill="none" stroke="#707070" stroke-width="1"/>
          </g>
        </g>
      </g>
      <g id="Group_691" data-name="Group 691" opacity="0.22">
        <g id="Group_690" data-name="Group 690">
          <g id="Group_689" data-name="Group 689" transform="translate(86.328 135.845)" clip-path="url(#clip-path-2)">
            <line id="Line_3" data-name="Line 3" x2="27.218" fill="none" stroke="#707070" stroke-width="1"/>
          </g>
        </g>
      </g>
      <g id="Group_694" data-name="Group 694" opacity="0.22">
        <g id="Group_693" data-name="Group 693">
          <g id="Group_692" data-name="Group 692" clip-path="url(#clip-path-3)">
            <path id="Path_3114" data-name="Path 3114" d="M118.4,135.845h38.4" fill="none" stroke="#707070" stroke-width="1"/>
          </g>
        </g>
      </g>
      <g id="Group_697" data-name="Group 697" opacity="0.22">
        <g id="Group_696" data-name="Group 696">
          <g id="Group_695" data-name="Group 695" transform="translate(167.766 135.845)" clip-path="url(#clip-path-4)">
            <line id="Line_4" data-name="Line 4" x2="8.015" fill="none" stroke="#707070" stroke-width="1"/>
          </g>
        </g>
      </g>
      <g id="Group_700" data-name="Group 700" opacity="0.22">
        <g id="Group_699" data-name="Group 699">
          <g id="Group_698" data-name="Group 698" transform="translate(95.399 153.755)" clip-path="url(#clip-path-5)">
            <line id="Line_5" data-name="Line 5" x2="30.192" fill="none" stroke="#707070" stroke-width="1"/>
          </g>
        </g>
      </g>
      <path id="Path_3115" data-name="Path 3115" d="M135.069,151.249a1.989,1.989,0,1,1-1.4.582A1.909,1.909,0,0,1,135.069,151.249Z" fill="#4ecca3"/>
      <path id="Path_3116" data-name="Path 3116" d="M164.192,44.02a1.985,1.985,0,1,1-1.4.582A1.909,1.909,0,0,1,164.192,44.02Z" fill="#4ecca3"/>
      <path id="Path_3117" data-name="Path 3117" d="M143.013,62.554a1.985,1.985,0,1,1-1.4.581,1.915,1.915,0,0,1,1.4-.581Z" fill="#4ecca3"/>
      <g id="Group_703" data-name="Group 703" opacity="0.22">
        <g id="Group_702" data-name="Group 702">
          <g id="Group_701" data-name="Group 701" clip-path="url(#clip-path-6)">
            <path id="Path_3118" data-name="Path 3118" d="M146.984,47.556a2.422,2.422,0,1,1-1.712.709A2.331,2.331,0,0,1,146.984,47.556Z" fill="none" stroke="#707070" stroke-width="1"/>
          </g>
        </g>
      </g>
      <g id="Group_706" data-name="Group 706" opacity="0.22">
        <g id="Group_705" data-name="Group 705">
          <g id="Group_704" data-name="Group 704" clip-path="url(#clip-path-7)">
            <path id="Path_3119" data-name="Path 3119" d="M170.813,54.175a2.417,2.417,0,1,1-1.712.708,2.334,2.334,0,0,1,1.712-.708Z" fill="none" stroke="#707070" stroke-width="1"/>
          </g>
        </g>
      </g>
      <path id="Path_3120" data-name="Path 3120" d="M62.258,144.63a1.989,1.989,0,1,1-1.4.582A1.916,1.916,0,0,1,62.258,144.63Z" fill="#4ecca3"/>
      <path id="Path_3121" data-name="Path 3121" d="M26.517,149.924a1.989,1.989,0,1,1-1.4.583,1.916,1.916,0,0,1,1.4-.583Z" fill="#4ecca3"/>
      <path id="Path_3122" data-name="Path 3122" d="M51.669,108.888a1.985,1.985,0,1,1-1.4.581A1.907,1.907,0,0,1,51.669,108.888Z" fill="#4ecca3"/>
      <g id="Group_709" data-name="Group 709" opacity="0.22">
        <g id="Group_708" data-name="Group 708">
          <g id="Group_707" data-name="Group 707" clip-path="url(#clip-path-8)">
            <path id="Path_3123" data-name="Path 3123" d="M45.049,134.929a2.419,2.419,0,1,1-1.711.708,2.327,2.327,0,0,1,1.711-.708Z" fill="none" stroke="#707070" stroke-width="1"/>
          </g>
        </g>
      </g>
      <g id="Group_712" data-name="Group 712" opacity="0.22">
        <g id="Group_711" data-name="Group 711">
          <g id="Group_710" data-name="Group 710" clip-path="url(#clip-path-9)">
            <path id="Path_3124" data-name="Path 3124" d="M156.488,61.631Z" fill="none" stroke="#707070" stroke-width="1"/>
          </g>
        </g>
      </g>
      <g id="Group_715" data-name="Group 715">
        <g id="Group_714" data-name="Group 714">
          <g id="Group_713" data-name="Group 713" clip-path="url(#clip-path-10)">
            <path id="Path_3125" data-name="Path 3125" d="M86.129,85.15l6.487-2.35L90.4,92.446,85.187,94.43Z" fill="#c0ecde"/>
          </g>
        </g>
      </g>
      <g id="Group_718" data-name="Group 718">
        <g id="Group_717" data-name="Group 717">
          <g id="Group_716" data-name="Group 716" clip-path="url(#clip-path-11)">
            <path id="Path_3126" data-name="Path 3126" d="M98.333,80.645l6.758-2.487-3.532,10.254-5.378,1.917Z" fill="#c0ecde"/>
          </g>
        </g>
      </g>
      <g id="Group_721" data-name="Group 721">
        <g id="Group_720" data-name="Group 720">
          <g id="Group_719" data-name="Group 719" clip-path="url(#clip-path-12)">
            <path id="Path_3127" data-name="Path 3127" d="M110.831,76.075l5.769-2.069-3.853,10.165-5.276,1.991Z" fill="#c0ecde"/>
          </g>
        </g>
      </g>
      <g id="Group_724" data-name="Group 724">
        <g id="Group_723" data-name="Group 723">
          <g id="Group_722" data-name="Group 722" clip-path="url(#clip-path-13)">
            <path id="Path_3128" data-name="Path 3128" d="M122.382,71.809l5.77-2.1-4.239,10.315-6.3,2.361Z" fill="#c0ecde"/>
          </g>
        </g>
      </g>
      <g id="Group_727" data-name="Group 727">
        <g id="Group_726" data-name="Group 726">
          <g id="Group_725" data-name="Group 725" clip-path="url(#clip-path-14)">
            <path id="Path_3129" data-name="Path 3129" d="M74.077,74.489l6.958-4.166,11.571,5.1-6.258,4.089Z" fill="#c0ecde"/>
          </g>
        </g>
      </g>
      <path id="Path_3130" data-name="Path 3130" d="M64.5,102.343,82.05,95.97,60.985,81.52l-4.672,3.058Z" fill="#a6e5d1"/>
      <path id="Path_3131" data-name="Path 3131" d="M64.5,102.343,82.05,95.97,60.985,81.52l-4.672,3.058Z" fill="none" stroke="#4ecca3" stroke-width="1"/>
      <path id="Path_3132" data-name="Path 3132" d="M66.893,94.325a1.323,1.323,0,1,1-1.322,1.324,1.171,1.171,0,0,1,1.322-1.324Z" fill="#4ecca3"/>
      <path id="Path_3133" data-name="Path 3133" d="M73.512,93a1.324,1.324,0,1,1-1.322,1.324A1.17,1.17,0,0,1,73.512,93Z" fill="#4ecca3"/>
      <path id="Path_3134" data-name="Path 3134" d="M62.922,86.383A1.323,1.323,0,1,1,61.6,87.706a1.169,1.169,0,0,1,1.322-1.323Z" fill="#4ecca3"/>
      <g id="Group_730" data-name="Group 730">
        <g id="Group_729" data-name="Group 729">
          <g id="Group_728" data-name="Group 728" clip-path="url(#clip-path-15)">
            <path id="Path_3135" data-name="Path 3135" d="M84.744,68.138l7.322-4.323,10.258,5.213-7.2,4.72Z" fill="#c0ecde"/>
          </g>
        </g>
      </g>
      <g id="Group_733" data-name="Group 733">
        <g id="Group_732" data-name="Group 732">
          <g id="Group_731" data-name="Group 731" clip-path="url(#clip-path-16)">
            <path id="Path_3136" data-name="Path 3136" d="M95.928,61.547l6.361-3.809,9.717,4.893-6.048,4.02Z" fill="#c0ecde"/>
          </g>
        </g>
      </g>
      <g id="Group_736" data-name="Group 736">
        <g id="Group_735" data-name="Group 735">
          <g id="Group_734" data-name="Group 734" clip-path="url(#clip-path-17)">
            <path id="Path_3137" data-name="Path 3137" d="M107.672,54.521,113.51,51.1l8.461,5.033-5.035,3.426Z" fill="#c0ecde"/>
          </g>
        </g>
      </g>
      <path id="Path_3138" data-name="Path 3138" d="M33.816,104.916h-13.3a4.006,4.006,0,0,0-4.007,4.007v8.723a3.989,3.989,0,0,0,2.064,3.485.915.915,0,0,1,.55-.257c.4-.038.8-.031,1.2-.068a2.594,2.594,0,0,1,.487-.161.859.859,0,0,1,1.421-.182h.054a16.88,16.88,0,0,1,3.7,1.2H27.5a4.878,4.878,0,0,1,.7-.019h3.2a.916.916,0,0,1,.92-.165h0a8.5,8.5,0,0,0,1.133-.386,3.2,3.2,0,0,1,1.6-.632.758.758,0,0,1,.591-.263.907.907,0,0,1,.633.3,2.017,2.017,0,0,1,.221-.011.9.9,0,0,1,.1.019,3.989,3.989,0,0,0,1.22-2.872v-8.723A4.009,4.009,0,0,0,33.816,104.916Z" fill="#a6e5d1" opacity="0.38"/>
      <path id="Path_3139" data-name="Path 3139" d="M31.669,110.116h0a2.6,2.6,0,0,0-3.684,0l-.574.575a.352.352,0,0,1-.5,0l-.565-.565a2.6,2.6,0,0,0-3.685,0h0a2.606,2.606,0,0,0,0,3.684l4.251,4.251a.351.351,0,0,0,.5,0l4.258-4.26a2.6,2.6,0,0,0,0-3.685Z" fill="#ec5569"/>
      <path id="Path_3140" data-name="Path 3140" d="M31.669,110.116h0a2.6,2.6,0,0,0-3.684,0l-.574.575a.352.352,0,0,1-.5,0l-.565-.565a2.6,2.6,0,0,0-3.685,0h0a2.606,2.606,0,0,0,0,3.684l4.251,4.251a.351.351,0,0,0,.5,0l4.258-4.26a2.6,2.6,0,0,0,0-3.685Z" fill="#4ecca3"/>
    </g>
  </g>
</svg>
